<svg width="64" height="64" viewBox="0 -10 57 70" fill="none" xmlns="http://www.w3.org/2000/svg">
<g clip-path="url(#clip0_1917_18686)">
<path d="M25.106 8.66664V0.877165C25.106 0.070148 24.1879 -0.315817 23.6439 0.245587L0.250921 24.3859C-0.0890929 24.7368 -0.0890929 25.2982 0.250921 25.6491L23.6099 49.7544C24.1539 50.3158 25.072 49.9298 25.072 49.1228V41.3333L9.77132 25.5438C9.46531 25.228 9.46531 24.7368 9.77132 24.421L25.106 8.66664Z" fill="#fd2962"></path>
<path d="M33.3691 49.7555L56.7281 25.6502C57.0681 25.2993 57.0681 24.7379 56.7281 24.387L33.3691 0.246685C32.8251 -0.314718 31.9071 0.0712466 31.9071 0.878264V8.66774L47.1397 24.387C47.4797 24.7379 47.4797 25.2993 47.1397 25.6151L42.9235 29.966L29.051 15.6502C28.7449 15.3344 28.2689 15.3344 27.9629 15.6502L19.4285 24.4572C19.1225 24.773 19.1225 25.2642 19.4285 25.58L27.9629 34.387C28.2689 34.7028 28.7449 34.7028 29.051 34.387L33.4371 29.8607L38.2313 34.8081L31.9071 41.3344V49.1239C31.9071 49.9309 32.8251 50.3169 33.3691 49.7555Z" fill="#fd2962"></path>
</g>
<defs>
<clipPath id="clip0_1917_18686">
<rect width="56.9864" height="50" fill="white" transform="translate(0.0136719)"></rect>
</clipPath>
</defs>
</svg>